<?xml version="1.0" standalone="no"?>
<!DOCTYPE svg PUBLIC "-//W3C//DTD SVG 20010904//EN"
 "http://www.w3.org/TR/2001/REC-SVG-20010904/DTD/svg10.dtd">
<svg version="1.0" xmlns="http://www.w3.org/2000/svg"
 width="60" height="60" viewBox="0 0 600.000000 600.000000"
 preserveAspectRatio="xMidYMid meet">
<metadata>
Created by potrace 1.16, written by Peter Selinger 2001-2019
</metadata>
<g transform="translate(0.000000,600.000000) scale(0.100000,-0.100000)"
fill="#f2f2f2" stroke="none">
<path d="M1583 4050 c-47 -19 -71 -98 -44 -149 24 -45 57 -51 265 -51 222 0
198 10 239 -101 38 -101 189 -493 262 -679 96 -245 145 -373 143 -375 -2 -1
-33 -16 -70 -32 -81 -38 -136 -91 -174 -169 -59 -120 -30 -271 71 -368 27 -27
68 -53 101 -65 54 -21 71 -21 850 -21 l796 0 29 29 c34 34 40 92 13 130 -37
52 -26 51 -849 51 l-765 0 -32 28 c-28 25 -32 36 -32 82 -1 49 2 55 37 85 21
18 58 38 83 44 52 13 314 56 894 146 597 92 610 95 631 106 44 23 47 48 57
425 6 218 6 368 0 383 -11 30 -44 60 -72 66 -19 4 -240 18 -1071 70 -126 8
-304 19 -395 25 -91 6 -190 12 -220 14 l-55 3 -56 143 c-80 204 -53 190 -362
189 -139 0 -262 -4 -274 -9z m1040 -554 c98 -7 181 -17 186 -22 7 -8 62 -254
61 -276 0 -5 -87 -8 -194 -8 l-194 0 -28 73 c-15 39 -42 110 -60 156 -19 47
-34 86 -34 88 0 6 85 2 263 -11z m547 -36 c90 -6 165 -12 166 -13 3 -3 24
-206 24 -232 l0 -25 -192 0 -193 0 -22 113 c-13 61 -26 127 -29 144 l-6 33 43
-5 c24 -3 118 -10 209 -15z m549 -33 l164 -12 -2 -105 c-1 -57 -5 -107 -7
-110 -3 -3 -96 -5 -207 -5 l-202 0 -6 60 c-4 33 -9 88 -13 123 l-6 62 58 -1
c31 -1 131 -6 221 -12z m157 -420 c-4 -45 -9 -83 -11 -85 -8 -8 -360 -59 -367
-53 -4 3 -10 54 -14 113 l-7 108 194 2 c107 2 198 1 203 -1 5 -2 6 -40 2 -84z
m-950 -72 c18 -82 30 -153 27 -157 -2 -5 -16 -8 -29 -8 -14 0 -78 -9 -141 -20
-64 -12 -119 -17 -123 -13 -9 11 -130 330 -130 343 0 7 60 10 182 8 l183 -3
31 -150z m445 153 c0 -2 6 -56 12 -122 9 -80 9 -119 2 -121 -46 -15 -317 -47
-324 -40 -4 6 -18 62 -30 125 -12 63 -25 125 -28 138 l-5 22 186 0 c102 0 186
-1 187 -2z"/>
<path d="M2441 1898 c-165 -82 -116 -338 68 -356 61 -6 107 9 150 50 56 53 77
135 50 205 -12 34 -64 90 -101 109 -40 21 -116 17 -167 -8z"/>
<path d="M3745 1906 c-60 -27 -114 -106 -115 -166 0 -80 59 -168 128 -188 118
-35 221 21 252 136 22 85 -33 191 -117 223 -35 13 -113 10 -148 -5z"/>
</g>
</svg>
